<svg xmlns="http://www.w3.org/2000/svg" viewBox="0 0 287.01 303.68"><defs><style>.cls-1{fill:#040000;}</style></defs><title>bonfire-logo-yashi-v2</title><g id="图层_2" data-name="图层 2"><g id="图层_1-2" data-name="图层 1"><path id="_4" data-name="4" class="cls-1" d="M196,158.68c-.53-19.16,26.64-39.13,28.19-56.44,1.3-14.44-19-29.17-25.76-38.67-4.93-6.94-3.74-20.6,2.64-26.15,0,0-20.32,14.95-7.57,31.61S217.05,90.88,216.26,101s-16.34,27.77-23.12,37.84a35.74,35.74,0,0,0-4.47,9.88c-1.75,11.36-.38,19.24,1.78,23.64,1.68,3.42,3.83,4.73,5.37,3.92,1.25-.66,1.85-3.68,1.91-6.21s-.87-4.58-1.25-7.25A35.46,35.46,0,0,1,196,158.68Z"/><path id="_3" data-name="3" class="cls-1" d="M186.2,95.19c5.39-17.73-13.76-32-13.76-32,18.07,22.87,3.59,41.13-9.17,59.07-1.18,1.67-2.34,3.4-3.46,5.19l9.3-3.37C175.69,113.82,183.4,104.42,186.2,95.19Z"/><path id="_1" data-name="1" class="cls-1" d="M88.91,113.58s8.62,11.3,7.3,21c-1.17.83-2.39,1.65-3.72,2.48-.38.24-.75.51-1.12.75h14.11c11.48-9.92,20.64-26.79,13.31-36.94-8.36-11.6-12.58-17.13-4.46-28.86,5.6-8.07,5.14-13,5.77-17.48,0,0,4.4,3.89,2.28,15-1.81,9.55,8.39,20.84,14.79,19.54,0,0-9.67-3.93-8.81-22.3.64-13.7-10.13-25-18.84-27.35,0,0,11.25,15.54,0,28.75-9.43,11.08-7.07,22.54-3.08,28.66,3.45,5.3,11.93,18.1-4.36,33,.5-6.8-2.32-20.82-20-31.48a31.74,31.74,0,0,1-12,32.33C45,150.25,84.18,132.74,88.91,113.58Z"/><path id="_2" data-name="2" class="cls-1" d="M159.47,106.84c5.19-13.23-15.1-21.29-16.05-29.75-1.27-11.31,12.46-14,19.07-25.82,2.31-4.13,1.46-9.5-.61-14.73-1.34-2.59-2.56-5.07-3.67-7.37-6.82-9.19-6.31-14.09-6.31-14.09a44.5,44.5,0,0,0,13,15c10.51,7.79,22.39,19.6,19.93,41.91C194,54.31,188.34,39.33,168.81,26S153.42,0,153.42,0c-10.84,11.81-5.62,25-.59,33.52s4.93,14.78,0,20.39-14.7,12-16.69,20,4.64,14.55,11.66,21.27c5.62,5.37,3.19,11.35-2.79,17.51a259.56,259.56,0,0,0-19.29,22,43.26,43.26,0,0,1,10.89-3.23C146.43,121.1,157.24,112.53,159.47,106.84Z"/><path id="_5" data-name="5" class="cls-1" d="M281.94,174.07c3.91.12-23.43-42.84-23.43-42.84-9.29-15.75-6.42-30.83-3.36-35.9-17.59,14.34-19.39,29.35-19.39,29.35a58.65,58.65,0,0,1,.2-7.7c0-13.52-12.36-25-7.12-16.78,3.51,7.76,3.23,21.11,3.56,23.12s-3.05,20.14,2.44,29a72.3,72.3,0,0,0,4.69-14.68c1.42-6.18,1.81-14.71,6.34-21.19,0,0,4.73,13.93,11.64,24.86,5.7,9,9.26,20.41,17.77,28.52l-1.15-.71C278.86,173.8,281.2,171.29,281.94,174.07Z"/><path class="cls-1" d="M57.21,163.41A4.19,4.19,0,0,1,53,159.22a29.8,29.8,0,0,1,29.77-29.77h29.28a4.2,4.2,0,0,1,0,8.39H82.79A21.41,21.41,0,0,0,61.4,159.22,4.19,4.19,0,0,1,57.21,163.41Z"/><path class="cls-1" d="M123.3,160.08h-9.92a34.22,34.22,0,0,1-23.69-9.48L76.18,138.06a4.19,4.19,0,0,1,5.7-6.15l13.56,12.58a25.84,25.84,0,0,0,17.94,7.2h1.87a26.47,26.47,0,0,1,26.1-22.24h24.09a4.2,4.2,0,0,1,0,8.39H141.35a18.07,18.07,0,0,0-18,18Z"/><path class="cls-1" d="M157.29,163.41a4.18,4.18,0,0,1-3.49-1.87L136.75,136a4.19,4.19,0,0,1,7-4.65l17.05,25.57a4.2,4.2,0,0,1-1.17,5.82A4.12,4.12,0,0,1,157.29,163.41Z"/><path class="cls-1" d="M165.44,171.67H57.21a4.2,4.2,0,0,1,0-8.39H165.44a4.2,4.2,0,0,1,0,8.39Z"/><path class="cls-1" d="M165.44,183.69H57.21a4.19,4.19,0,0,1,0-8.38H165.44a4.19,4.19,0,0,1,0,8.38Z"/><path class="cls-1" d="M165.44,196.92H57.21a4.19,4.19,0,0,1,0-8.38H165.44a4.19,4.19,0,0,1,0,8.38Z"/><path class="cls-1" d="M136.58,196.92a4.19,4.19,0,0,1-4.19-4.19V157.05a4.19,4.19,0,0,1,8.38,0v35.68A4.18,4.18,0,0,1,136.58,196.92Z"/><path class="cls-1" d="M87.59,196.92a4.19,4.19,0,0,1-4.2-4.19V157.05a4.2,4.2,0,0,1,8.39,0v35.68A4.19,4.19,0,0,1,87.59,196.92Z"/><path class="cls-1" d="M66.83,303.68a4.2,4.2,0,0,1-4.19-4.19V245a40.52,40.52,0,0,1,40.47-40.47h15.23A40.52,40.52,0,0,1,158.81,245v17.47a4.19,4.19,0,1,1-8.38,0V245a32.12,32.12,0,0,0-32.09-32.08H103.11A32.12,32.12,0,0,0,71,245v54.47A4.19,4.19,0,0,1,66.83,303.68Z"/><path class="cls-1" d="M112.13,237a4.19,4.19,0,0,1-4.19-4.19V192.73a4.19,4.19,0,0,1,8.38,0v40.09A4.2,4.2,0,0,1,112.13,237Z"/><path class="cls-1" d="M148.45,229H73.24a4.19,4.19,0,1,1,0-8.38h75.21a4.19,4.19,0,0,1,0,8.38Z"/><path class="cls-1" d="M275.6,196.92a4.12,4.12,0,0,1-1.19-.17,4.19,4.19,0,0,1-2.83-5.21l3.33-11.24a13.5,13.5,0,0,0-19.2-15.82l-35.17,18.36a21.91,21.91,0,0,1-31.16-13.31l8-2.59a13.65,13.65,0,0,0,7.75,8.91,13.46,13.46,0,0,0,11.56-.45L251.83,157A21.9,21.9,0,0,1,283,182.69l-3.33,11.23A4.2,4.2,0,0,1,275.6,196.92Z"/><path class="cls-1" d="M163,242.6H4.19a4.19,4.19,0,1,1,0-8.38H163c33.8,0,68.76-19,68.76-50.73V135a4.2,4.2,0,0,1,8.39,0v48.5C240.11,220.49,200.88,242.6,163,242.6Z"/><path class="cls-1" d="M282.82,253.44a4.19,4.19,0,0,1-3.22-1.5l-38.49-46.1a4.19,4.19,0,0,1,6.44-5.37L286,246.57a4.18,4.18,0,0,1-.53,5.9A4.14,4.14,0,0,1,282.82,253.44Z"/></g></g></svg>